/* XPM */
static char * camera_xpm[] = {
"32 32 30 1",
" 	c none",
".	c #000000000000",
"o	c #000004101040",
"O	c #EFBEE79DE79D",
"+	c #79E765955144",
"@	c #BEFBCB2BE79D",
"#	c #DF7DD75CCF3C",
"$	c #DF7DDB6CDF7D",
"%	c #186108201861",
"&	c #AEBAB2CACF3C",
"*	c #9E79A699AEBA",
"=	c #4924410330C2",
"-	c #861796589E79",
";	c #38E330C21040",
":	c #186120812081",
">	c #FFFFFBEEFFFF",
",	c #49249E79CF3C",
"<	c #1040186130C2",
"1	c #59655144BEFB",
"2	c #5144618571C6",
"3	c #C71BB2CA9658",
"4	c #41034D345965",
"5	c #28A238E34924",
"6	c #38E334D338E3",
"7	c #96589A698617",
"8	c #28A241038617",
"9	c #861782078617",
"0	c #69A669A679E7",
"q	c #A699A289A699",
"w	c #082000000000",
"        ..                      ",
"       oOO+.                    ",
"      .@O#$O+.                  ",
"      %O&**&$O+.                ",
"     .O@******@$=.              ",
"     oO&***----*##;.            ",
" .. :@$*->--,----*@&<.          ",
" .>;##*-O*123--111-*##;.        ",
" O.$@*-2>*4--111122-3&@@;.      ",
"O#.@*-->*24-O21221>>>>&#@#;.    ",
"O#.&*-2>-24-12>1->&&&&.--*&4.   ",
">O.&-->*-41O211->&...24.2224=5  ",
">.&#-->*24-21-->&.>>..4.22455=$ ",
">o$*1>2441O2->2>&.>..o4.2246=4* ",
".@&1117,--&***&>&.....4.845===9 ",
".#-122,33>23>23>&2...4.2246==<4 ",
".4221--**&*--112.4444.224====<+ ",
"#.44,3*&*3--12222:...22245==:50 ",
"&.4444&3--1218>>12222224=6==<+q ",
"#0.44444-2222222>>222224===:50& ",
"$q4..4444422222222>>8445==6;4qO ",
"O&0=:w.44444822222844446==:50&O ",
" O*+=;:..4444422242444====<4qO  ",
"  O*045;:..44444844444===:50&O  ",
"   O&3045;:..44444444==65;4qO   ",
"     $&q045;:..44444====:50&    ",
"       O&q045;:..444=56=<4qO    ",
"         O&q045;:.w4===:50&O    ",
"           O&3045;:..=:;+qO     ",
"            OO&q045;<::50&O     ",
"              OO&3045<=03O      ",
"                OO&q0+03OO      "};
