/* XPM */
/* Drawn for the K Desktop Environment */
/* See http://www.kde.org */
static char*ksnapshot[]={
"32 32 14 1",
"f c #808080",
"i c #008000",
". c None",
"h c #00ff00",
"g c #c0c0c0",
"e c #585858",
"d c #00c000",
"a c #00c0c0",
"j c #00ffff",
"# c #000000",
"b c #008080",
"l c #ffc0c0",
"c c #ffffff",
"k c #ff0000",
"..................##............",
"..................#a##..........",
"..................#baa##........",
"..................#cbbaa##......",
".......#..........#cccbbaa##....",
".....##d##........#cccccbbaa##..",
"...##ddddd##..#####cccccccbbaa##",
".##ddddddddd##eeff##gcccccccbba#",
"#hdddddddddddd##fgcg#gccccccccb#",
"#dhhdddddddddddd##gff#ccccccccc#",
"#dddhhdddddddddddd##fe#cccccccc#",
"#diiddhhdddddddddddd###cccccccc#",
"#dijiiddhhddddddddeekk##gcccccc#",
"#dijjjiiddhhddddeekkkkkk##ccccc#",
"#dijjjjhddddhheekkkkkkeedi#cccc#",
"#dihjjjhddddddelkkkkeeddii#cccc#",
"#dddhhjhddddddeklleeddiiii##gcc#",
"#dddddhhddddddeekkehiiiiii#.##g#",
"#dddddddddddddddeeediiiiii#...##",
"#ddddddddddd#iidddediiiiii#.....",
"#ddddddddddid##iidddiiiiii#.....",
"#ddddiidddddid####ddiiiiii#.....",
"##iddidiidddddididddiiiiii#.....",
"..##iidddiidddddddddiiiiii#.....",
"....##iddddiidddddddiiiiii#.....",
"......##iddddiidddddiiiiii#.....",
"........##iddddiidddiiiiii#.....",
"..........##iddddiddiiiiii#.....",
"............##iddiddiiii##......",
"..............##iiddii##........",
"................##id##..........",
"..................##............"};
