/* XPM */
static char * ksnapshot_xpm[] = {
"34 34 182 2",
"  	c None",
". 	c #020204",
"+ 	c #02B6B4",
"@ 	c #02AAAC",
"# 	c #02A2A4",
"$ 	c #029294",
"% 	c #02B2B4",
"& 	c #02A6AC",
"* 	c #029A9C",
"= 	c #02868C",
"- 	c #025654",
"; 	c #12220C",
"> 	c #E2E2E4",
", 	c #02969C",
"' 	c #028E8C",
") 	c #028284",
"! 	c #FAFAFC",
"~ 	c #FEFEFC",
"{ 	c #1EBA14",
"] 	c #1AB614",
"^ 	c #222224",
"/ 	c #CECED4",
"( 	c #EEEEEC",
"_ 	c #AEAEAC",
": 	c #C6C6C4",
"< 	c #22BE14",
"[ 	c #1EBE1C",
"} 	c #1ABA14",
"| 	c #16B214",
"1 	c #323234",
"2 	c #4E4E4C",
"3 	c #FAFEFC",
"4 	c #22BE1C",
"5 	c #16B614",
"6 	c #12AE0C",
"7 	c #565654",
"8 	c #9E9E9C",
"9 	c #D2D2D4",
"0 	c #666664",
"a 	c #DEDEDC",
"b 	c #32EE24",
"c 	c #22EE1C",
"d 	c #22C21C",
"e 	c #12B214",
"f 	c #0EAA0C",
"g 	c #0EBA0C",
"h 	c #BEBABC",
"i 	c #9A9A9C",
"j 	c #6E6E6C",
"k 	c #3ADE24",
"l 	c #42CE2C",
"m 	c #1AB20C",
"n 	c #16AE14",
"o 	c #0AA60C",
"p 	c #06A204",
"q 	c #828284",
"r 	c #3E3E44",
"s 	c #46C224",
"t 	c #56A244",
"u 	c #66B22C",
"v 	c #6EC234",
"w 	c #0EAE0C",
"x 	c #0AAA0C",
"y 	c #02A204",
"z 	c #029E04",
"A 	c #363A34",
"B 	c #72DEC4",
"C 	c #86CA94",
"D 	c #A2AE5C",
"E 	c #92B234",
"F 	c #72CA3C",
"G 	c #764644",
"H 	c #CA0604",
"I 	c #660204",
"J 	c #120A0C",
"K 	c #5A5A5C",
"L 	c #66C62C",
"M 	c #82E2CC",
"N 	c #9EFEF4",
"O 	c #B6F2EC",
"P 	c #A2DEBC",
"Q 	c #8EA244",
"R 	c #2AB61C",
"S 	c #0AA20C",
"T 	c #DE1214",
"U 	c #EE0604",
"V 	c #FE0204",
"W 	c #A21614",
"X 	c #263E2C",
"Y 	c #7EC234",
"Z 	c #96E2CC",
"` 	c #C2FEFC",
" .	c #E2FEFC",
"..	c #9AFE94",
"+.	c #9ACE3C",
"@.	c #26BE1C",
"#.	c #5E7664",
"$.	c #FE0E04",
"%.	c #CE261C",
"&.	c #467A44",
"*.	c #02AA04",
"=.	c #7EE63C",
"-.	c #96F664",
";.	c #D2FEFC",
">.	c #56C224",
",.	c #2ABA2C",
"'.	c #12AA0C",
").	c #8E5644",
"!.	c #F2BABC",
"~.	c #FE7E7C",
"{.	c #FE0604",
"].	c #A24244",
"^.	c #6A763C",
"/.	c #028A04",
"(.	c #027A04",
"_.	c #5EC634",
":.	c #7AC634",
"<.	c #9AEE3C",
"[.	c #B2F694",
"}.	c #9AFECC",
"|.	c #8AFE94",
"1.	c #66CA34",
"2.	c #46C234",
"3.	c #8A4E4C",
"4.	c #FE3634",
"5.	c #FEB6B4",
"6.	c #FEBEBC",
"7.	c #1EAE04",
"8.	c #027604",
"9.	c #027E04",
"0.	c #7EC63C",
"a.	c #9ED63C",
"b.	c #92E23C",
"c.	c #6EFE5C",
"d.	c #56CA34",
"e.	c #369A34",
"f.	c #4E7654",
"g.	c #5A6A4C",
"h.	c #1ADE04",
"i.	c #068604",
"j.	c #26C21C",
"k.	c #5ACA34",
"l.	c #5EC234",
"m.	c #2ABA1C",
"n.	c #5A5A54",
"o.	c #5A5E54",
"p.	c #52625C",
"q.	c #069E04",
"r.	c #0A7E04",
"s.	c #120E0C",
"t.	c #12120C",
"u.	c #12AE14",
"v.	c #1E7A1C",
"w.	c #1A1614",
"x.	c #166E14",
"y.	c #06B204",
"z.	c #2E862C",
"A.	c #027204",
"B.	c #1EBA1C",
"C.	c #1EB614",
"D.	c #1AB214",
"E.	c #1A2614",
"F.	c #064E04",
"G.	c #028E04",
"H.	c #22BA1C",
"I.	c #268E1C",
"J.	c #024E04",
"K.	c #023204",
"L.	c #022E04",
"M.	c #024204",
"N.	c #026A04",
"O.	c #1E8A14",
"P.	c #0AAE0C",
"Q.	c #026E04",
"R.	c #168A14",
"S.	c #228E1C",
"T.	c #12860C",
"U.	c #06A20C",
"V.	c #0EA60C",
"W.	c #028204",
"X.	c #026604",
"Y.	c #026204",
"                                                                    ",
"                                    . .                             ",
"                                    . + . .                         ",
"                                    . + + @ . .                     ",
"                                    . + + @ # $ . .                 ",
"                                    . . % & * $ = - . .             ",
"              . . ;                 . > . . , ' ) - ! ~ . .         ",
"          . . { ] ] . .             ^ / ( ! . . ) - ~ _ ~ : . .     ",
"      . . < [ { } ] | | . .     . . . 1 / / ~ ~ . . ~ _ 2 3 ~ ~ .   ",
"    . < 4 4 { [ ] ] 5 | 6 6 . . 7 8 9 ~ 0 1 a ~ ~ ~ 2 2 2 ~ _ 2 .   ",
"    . b c d { { ] 5 | e 6 6 f g . . 7 h i 0 2 ( ~ ~ ~ ~ j 2 _ 2 .   ",
"    . k l c c { } m | n 6 f f o p p . . 7 q 0 r ~ ~ ~ ~ ~ ~ j 2 .   ",
"    . s t u v c c 5 5 6 6 w f x o y z z . . . A a ~ ~ ~ ~ ~ ~ ~ .   ",
"    . s B C D E F c c e 6 f x o p p y G G H I J K 3 ~ ~ ~ ~ ~ ~ .   ",
"    . L M N O P Q v R c c f x o S 7 G T U V U H W X 9 ~ ~ ~ ~ ~ .   ",
"    . Y Z ` 3  ...+.@.| 6 c c #.G V V V $.$.%.G &.*.X 9 ~ ~ ~ ~ .   ",
"    . =.-.;.3  ...+.>.| 6 ,.'.).!.~.V V {.].^.4 | /.(.X ~ ~ ~ ~ .   ",
"    . _.:.<.[.}.|.1.2.| n 6 f 3.T 4.5.6.].g 7.8.(.9.9.. ~ ! ~ ~ .   ",
"    . _.L 0.a.b.c.d.@.e 6 6 f e.f.V V g.h.i.9.9.(.(.9.. : ~ ~ ~ .   ",
"    . j._.k._.l.s m.R n n '.f x o n.o.p.q.r.(.(.9.9.(.. s.t.: ~ .   ",
"    . 4 @.j.@.@.m.R 6 6 u.v.w.x.x y.p z.z 9.(.(.8.r.A..     . . .   ",
"    . 4 4 B.C.C.D.| | n 6 '.E.J F.G.x x z (.8.A.A.A.8..             ",
"    . 4 H.H.C.I.I.n | 6 6 '.f J.K.L.M.y z (.8.(.8.A.N..             ",
"    . < H.B.I.C.D.O.O.| u.f f x o o P.o z (.8.A.A.8.Q..             ",
"      . . B.I.] ] | n R.S.f f x o p p y z 8.8.8.Q.Q.N..             ",
"          . . C.m | e 6 6 T.T.o U.p U.q.z 8.Q.N.N.N.N..             ",
"              . . n n 6 6 f V.W.W.p y z z 8.A.Q.N.X.X..             ",
"                  . . '.f f f V.o W.W.z z Q.Q.X.X.X.Y..             ",
"                      . . f x o o p W.z z Q.N.N.X.Y.Y..             ",
"                          . . S p U.W.z z A.X.Y.Y.. .               ",
"                              . . o W.z z Y.Y.. .                   ",
"                                  . . z J.. .                       ",
"                                      . .                           ",
"                                                                    "};
