/* XPM */
static char * ksnapshot_xpm[] = {
"48 48 247 2",
"  	c None",
". 	c #020204",
"+ 	c #02B6B8",
"@ 	c #02AEB1",
"# 	c #02AAAC",
"$ 	c #02A6AC",
"% 	c #02024C",
"& 	c #02022C",
"* 	c #02B2B4",
"= 	c #02A2A4",
"- 	c #029EA1",
"; 	c #029A9C",
"> 	c #020219",
", 	c #029699",
"' 	c #029294",
") 	c #028D8C",
"! 	c #028684",
"~ 	c #0D0A0E",
"{ 	c #FEFEFC",
"] 	c #F6F6F4",
"^ 	c #028284",
"/ 	c #1A1A1C",
"( 	c #140E0C",
"_ 	c #16BA0C",
": 	c #120A0C",
"< 	c #363634",
"[ 	c #EEFEFC",
"} 	c #262624",
"| 	c #AEAEAC",
"1 	c #161614",
"2 	c #1A1214",
"3 	c #1ABE14",
"4 	c #16B60C",
"5 	c #464644",
"6 	c #F9FAFC",
"7 	c #4E4E4C",
"8 	c #1E1614",
"9 	c #1DC210",
"0 	c #24C21C",
"a 	c #1EBE16",
"b 	c #19BA14",
"c 	c #122A0C",
"d 	c #2E2E2C",
"e 	c #060604",
"f 	c #868684",
"g 	c #C2C2C4",
"h 	c #3E3E3C",
"i 	c #1A2614",
"j 	c #222E1C",
"k 	c #24BE1C",
"l 	c #24BA1E",
"m 	c #1EBA14",
"n 	c #16B211",
"o 	c #11B20C",
"p 	c #101A09",
"q 	c #575654",
"r 	c #7A7A7C",
"s 	c #666664",
"t 	c #BABABC",
"u 	c #261A1C",
"v 	c #27EE1F",
"w 	c #26C61C",
"x 	c #2BC224",
"y 	c #1DB615",
"z 	c #1CB215",
"A 	c #0DAE07",
"B 	c #0E260C",
"C 	c #7E7E7C",
"D 	c #D2D2D4",
"E 	c #222224",
"F 	c #2E221C",
"G 	c #2EDE1C",
"H 	c #2EEF24",
"I 	c #2CC624",
"J 	c #2BBE25",
"K 	c #1BAE14",
"L 	c #14AE0D",
"M 	c #13AA0C",
"N 	c #05AA04",
"O 	c #5E5A54",
"P 	c #5E5F5C",
"Q 	c #CECECC",
"R 	c #767674",
"S 	c #DADADC",
"T 	c #6E6E6C",
"U 	c #2A1E1C",
"V 	c #37C624",
"W 	c #37C224",
"X 	c #36F22C",
"Y 	c #32C324",
"Z 	c #34BE26",
"` 	c #23B61D",
" .	c #0CA60A",
"..	c #02A604",
"+.	c #02A204",
"@.	c #8A8A8C",
"#.	c #6A6A6C",
"$.	c #9A9A9C",
"%.	c #362624",
"&.	c #45C62C",
"*.	c #47F22C",
"=.	c #3CBE2E",
"-.	c #2BBA25",
";.	c #2AB619",
">.	c #0BAA08",
",.	c #525254",
"'.	c #0C0E06",
").	c #D6D6D4",
"!.	c #46962C",
"~.	c #4E962C",
"{.	c #5AB634",
"].	c #5EC634",
"^.	c #59C634",
"/.	c #52F234",
"(.	c #029E04",
"_.	c #3A2A24",
":.	c #529A34",
"<.	c #62F2E4",
"[.	c #6E9E3C",
"}.	c #96A23C",
"|.	c #9AB63C",
"1.	c #94CA3C",
"2.	c #6AC83C",
"3.	c #22B21C",
"4.	c #663A14",
"5.	c #8E0204",
"6.	c #1A0204",
"7.	c #422A2C",
"8.	c #4ECA2C",
"9.	c #629E3C",
"0.	c #7EF2EC",
"a.	c #93F2EC",
"b.	c #9AA254",
"c.	c #8EA244",
"d.	c #7AC63C",
"e.	c #5AC234",
"f.	c #46BE30",
"g.	c #3BF229",
"h.	c #22AE0C",
"i.	c #764644",
"j.	c #FE0204",
"k.	c #560204",
"l.	c #2E0204",
"m.	c #3A1214",
"n.	c #4A3E34",
"o.	c #58CA34",
"p.	c #72A644",
"q.	c #82F2EC",
"r.	c #9EFAEC",
"s.	c #9EFEFC",
"t.	c #BAFEFC",
"u.	c #7E9E44",
"v.	c #51C234",
"w.	c #32BA24",
"x.	c #8A3E3C",
"y.	c #4E3A34",
"z.	c #96A84C",
"A.	c #DEFEFC",
"B.	c #8FFA44",
"C.	c #93C63D",
"D.	c #26BA34",
"E.	c #20EE18",
"F.	c #4E8A4C",
"G.	c #56724C",
"H.	c #FE0607",
"I.	c #FE1207",
"J.	c #8E3A3C",
"K.	c #6A4E4C",
"L.	c #129E0C",
"M.	c #027C04",
"N.	c #523E34",
"O.	c #5FCA36",
"P.	c #9EAA44",
"Q.	c #45C22E",
"R.	c #2ABE39",
"S.	c #5A7E54",
"T.	c #7E7274",
"U.	c #FEBEBC",
"V.	c #FE0A0C",
"W.	c #FE0E06",
"X.	c #617644",
"Y.	c #328234",
"Z.	c #32862C",
"`.	c #161E0C",
" +	c #4A2E2C",
".+	c #BAF6EC",
"++	c #DEFAF4",
"@+	c #36C23C",
"#+	c #42BA14",
"$+	c #FEE2DC",
"%+	c #FE1604",
"&+	c #666A54",
"*+	c #1EBE04",
"=+	c #12B604",
"-+	c #028204",
";+	c #82CA3C",
">+	c #96FA47",
",+	c #BAFA64",
"'+	c #7CF640",
")+	c #66C33C",
"!+	c #6E6254",
"~+	c #96CEB4",
"{+	c #36C604",
"]+	c #060E04",
"^+	c #462E2C",
"/+	c #4AC32C",
"(+	c #58764C",
"_+	c #725654",
":+	c #964644",
"<+	c #26B204",
"[+	c #050A04",
"}+	c #66FA3C",
"|+	c #5AFA34",
"1+	c #4E6E4C",
"2+	c #545E54",
"3+	c #22DE04",
"4+	c #0A1204",
"5+	c #C4C6C4",
"6+	c #4FC62F",
"7+	c #575A54",
"8+	c #1EA204",
"9+	c #027404",
"0+	c #322224",
"a+	c #3EC22C",
"b+	c #148A10",
"c+	c #0E9E0C",
"d+	c #1E9A1C",
"e+	c #1A6E14",
"f+	c #0A620C",
"g+	c #029A04",
"h+	c #0A0607",
"i+	c #014701",
"j+	c #026C04",
"k+	c #028E04",
"l+	c #268E1C",
"m+	c #1E2A14",
"n+	c #218E1A",
"o+	c #1A8A14",
"p+	c #1E8A14",
"q+	c #151212",
"r+	c #13860C",
"s+	c #12220C",
"t+	c #026604",
"u+	c #0C8604",
"v+	c #026204",
"w+	c #021E04",
"x+	c #021604",
"                                                                                                ",
"                                                                                                ",
"                                                    . . .                                       ",
"                                                    . + @ . .                                   ",
"                                                    . + @ # $ % &                               ",
"                                                    . * @ $ = - ; > >                           ",
"                                                    . @ # $ = ; , ' ) > .                       ",
"                                                    . . . = - ; , ) ) ! . . .                   ",
"                        ~                           . { ] . . , , ) ) ^ . { { . /               ",
"                    ( ( _ ( :                       < [ { { { } . ) ! ^ . { | { { . 1           ",
"                2 2 3 3 _ _ 4 ( :                   5 6 { { { { { . . ^ . { | | 7 { { . .       ",
"            8 8 9 0 9 a a 3 b 4 4 ( c       < . . d } e f g 6 6 6 { ] h . { | | 7 { | { { .     ",
"        i j 9 0 9 k 0 k l a m b 4 n o p p . 7 q r f s s 1 s t { 6 { 6 { ] 7 7 | 7 { | | 7 .     ",
"      u v 0 0 w x 0 k 0 k l l l y 4 z o A B . q C D { { g q E g { { { { { { { q 7 { | | 7 .     ",
"      F G H H I x x J 0 k k l l l y z K L M N . . O P Q Q R q < S { 6 { { { { { { T 7 | 7 .     ",
"      U x V W H X V Y Z Y J l l ` y z n L A  ...+.. . @.P T #./ $.{ { 6 { { { { { { 6 T 7 .     ",
"      %.V V &.&.&.*.*.=.=.Z -.l ` ;.z z K L >.N ..+.+.. . 5 R ,.'.).{ { { { { { { { { { { .     ",
"      %.V !.~.{.].^.^./.*.=.=.-.-.` ;.z K M  . .+.+.+.(.(.. ~ e . s { { { { { { { { { { { ~     ",
"      _.&.:.<.[.}.|.1.2.^.*.*.-.-.;.3.z z K M  .+.+.+.+.+.4.5.. 6.d r { { { { { { { { { { .     ",
"      7.8.9.0.0.a.b.c.d.d.e.f.g.H ` ` 3.h.M M  ...+.(.i.i.j.j.j.k.l.m.g { { { { { { { { { .     ",
"      n.o.p.q.r.s.t.s.b.u.2.v.=.w.H v h.3.M M  .q q x.j.j.j.j.j.j.j.j.. ~ g { { { { { { { .     ",
"      y.^.z.a.s.A.[ A.s.B.C.e.f.Z -.D.E.E.F.G.P H.j.j.j.j.I.I.I.J.i.K.L.M.. { { { { { { { .     ",
"      N.O.P.a.t.[ { [ t.B.C.e.Q.=.R.J ` ;.S.T.U.V.j.j.j.I.W.W.V.X.Y.Z.N M.M.`.{ { { { { { .     ",
"       +O.B.B..+++[ A.r.B.C.e.f.@+R.D.-.#+X.I.$+U.j.j.I.V.%+&+X.h.*+=+M.-+M.p { { { { { { .     ",
"      7.^.2.;+>+,+t.s.r.'+)+f.f.w.D.` ` ;.G.W.V.H.U.U.!+~+!.9 {+M.M.M.M.M.M.]+g { { { { { .     ",
"      ^+8.].d.;+C.>+B.0.'+e./+=.R.-.D.3.z (+_+:+H.j.j.&+I <+M.M.M.M.M.M.M.M.[+5 < g { { { .     ",
"      %.&.^.e.)+C.1.C.}+|+f.=.w.-.` ` 3.z z M 1+j.j.j.2+3+=+M.M.M.M.M.M.M.M.e     [+4+5+{ .     ",
"      %.V &.6+^.e.e.e.v.f.=.=.-.-.` ` z K L A ..7+7+7+7++.8+9+M.9+M.9+M.9+9+[+        4+. .     ",
"      0+Y W a+a+Q.Q.f.f.=.w.-.l ;.` y 1 2 b+c+N ....d+2++.+.9+M.9+M.9+M.M.9+]+                  ",
"      F x Y J Y Z Z Z Z -.-.-.` l z 3.e+( : f+g+..+.....+.(.9+9+9+9+9+9+9+9+4+                  ",
"      8 k x k x J J J J l l l ` ` z K z ( ~ h+i+j+k++.+.+.(.9+9+9+9+9+9+9+9+4+                  ",
"      8 0 k k k l+l+l+l l l ` y z z n L A i+. . . . . +.(.g+9+9+9+9+j+9+9+9+e                   ",
"      m+9 k a k n+l m l+n+y y y n L L M >...k+M.j++.+.+.(.(.j+9+9+9+j+j+j+j+.                   ",
"        i o+m a n+m m m y p+p+z L n A >.N N ....+...+.+.+.g+9+j+j+j+j+9+9+j+.                   ",
"          2 q+o+o+y 4 y 4 n n b+r+L A ..........+...+.(.(.(.j+j+j+9+j+j+j+j+(                   ",
"              ( 2 b+4 4 n o o L L -+-+N ......+.+.+.+.+.(.(.j+j+j+j+j+j+j+j+.                   ",
"                  : s+r+o A A A A >.N -+-+......+.+.+.+.(.g+j+j+j+t+t+j+j+j+.                   ",
"                      ~ '.u+A N N N ..N ..-+-++.+.+.(.(.(.(.j+t+t+j+j+t+t+t+.                   ",
"                          e e -+N N ..........-+-++.+.(.(.g+t+t+t+t+j+t+t+t+.                   ",
"                              . [+-+....+.+.+.+.(.-+(.(.(.g+t+t+t+v+v+t+t+v+.                   ",
"                                  . w+-+..+.+.+.+.-+(.(.(.(.v+v+v+t+v+v+v+.                     ",
"                                      . . -++.+.(.-+(.(.(.g+v+v+v+v+v+. .                       ",
"                                          . . -+(.-+(.(.(.g+v+v+v+. .                           ",
"                                              . . -+(.(.(.(.v+x+.                               ",
"                                                  . . -+j+. .                                   ",
"                                                      . e                                       ",
"                                                                                                ",
"                                                                                                "};
