/* XPM */
static char * mini_camera_xpm[] = {
"16 16 24 1",
" 	c #FFFF00000000",
".	c #9E79A699AEBA",
"X	c #000000000000",
"O	c #AEBAB2CACF3C",
"+	c #BEFBCB2BE79D",
"@	c #EFBEE79DE79D",
"#	c #28A241038617",
"$	c #5144618571C6",
"%	c #79E765955144",
"&	c #861782078617",
"*	c #861796589E79",
"=	c #FFFFFBEEFFFF",
"-	c #59655144BEFB",
";	c #186120812081",
":	c #41034D345965",
">	c #4924410330C2",
",	c #1040186130C2",
"<	c #69A669A679E7",
"1	c #DF7DDB6CDF7D",
"2	c #38E330C21040",
"3	c #000004101040",
"4	c #28A238E34924",
"5	c #C71BB2CA9658",
"6	c #38E334D338E3",
"   .XX          ",
"   XO+XX        ",
"  X@#$$$XX      ",
"%&+.$*.#$#XX    ",
"=X.$*.$-$OO#XX  ",
"=X*#.$$-OXX;-:X ",
"X+$$.$$OXXXX$>X ",
"X-$$$-$OXXXX$>X ",
"X:.$$#$$,XX$#X, ",
".X::$$$#$:$#>X< ",
"1>XX::$$$$#>X,O ",
" O:234:$#$$>X%@ ",
"  @5:X36:$4X,O  ",
"    @.%XX:43<@  ",
"      @.%XX4O   ",
"        @.<5    "};
