/* XPM */
/* Drawn for the K Desktop Environment */
/* See http://www.kde.org */
static char*ksnapshot[]={
"16 16 10 1",
"c c #808080",
"e c #008000",
". c None",
"d c #00ff00",
"b c #585858",
"a c #00c000",
"f c #00ffff",
"# c #000000",
"h c #ffc0c0",
"g c #ff0000",
"................",
"...###..........",
".##aaa##bc#.....",
".#daaaaaa#c#....",
".#eddaaaaaa#....",
".#feeddaabggg#..",
".#dfdaadhggba#..",
".#addaaabgdee#..",
".#aaaaaeaaaee#..",
".#eeaaaa##aee#..",
"..##eeaaaaaee#..",
"....##eeaaaee#..",
"......##eeaee#..",
"........##ee##..",
"..........##....",
"................"};
